<svg width="392" height="261" viewBox="0 0 392 261" fill="none" xmlns="http://www.w3.org/2000/svg">
<path d="M304.669 8.14675C313.555 3.09515 324.445 3.09515 333.331 8.14675L355 20.4643L376.533 33.1626C385.305 38.3354 390.72 47.7298 390.801 57.9127L391 83L390.801 108.087C390.72 118.27 385.305 127.665 376.533 132.837L355 145.536L333.331 157.853C324.445 162.905 313.555 162.905 304.669 157.853L283 145.536L261.467 132.837C252.695 127.665 247.28 118.27 247.199 108.087L247 83L247.199 57.9127C247.28 47.7298 252.695 38.3354 261.467 33.1626L283 20.4643L304.669 8.14675Z" fill="#033D50"></path>
<path d="M57.6686 103.147C66.5551 98.0952 77.4449 98.0952 86.3314 103.147L108 115.464L129.533 128.163C138.305 133.335 143.72 142.73 143.801 152.913L144 178L143.801 203.087C143.72 213.27 138.305 222.665 129.533 227.837L108 240.536L86.3314 252.853C77.4449 257.905 66.5551 257.905 57.6686 252.853L36 240.536L14.4669 227.837C5.69533 222.665 0.279556 213.27 0.198845 203.087L0 178L0.198845 152.913C0.279556 142.73 5.69533 133.335 14.4669 128.163L36 115.464L57.6686 103.147Z" fill="#033D50"></path>
</svg>
