<svg width="23" height="23" viewBox="0 0 23 23" fill="none" xmlns="http://www.w3.org/2000/svg">
<rect width="23" height="23" rx="3" fill="#033D50"/>
<g clip-path="url(#clip0_253_202)">
<path d="M16.4905 8.71083H14.2892V8.70892C14.2892 7.67823 13.7272 6.77642 12.8936 6.29356V5.45259C12.8936 5.19502 13.1032 4.98547 13.3607 4.98547V4.05896C12.5923 4.05896 11.9671 4.68414 11.9671 5.45259V5.95902C11.8152 5.9333 11.6591 5.91971 11.5 5.91971C11.3409 5.91971 11.1848 5.9333 11.0329 5.95902V5.45259C11.0329 4.68414 10.4077 4.05896 9.63925 4.05896V4.98547C9.89682 4.98547 10.1064 5.19502 10.1064 5.45259V6.29356C9.27278 6.77639 8.71079 7.67823 8.71079 8.70889V8.7108H6.50952C4.90177 8.71083 3.59375 10.0188 3.59375 11.6266C3.59375 12.8283 4.28345 13.8605 5.39369 14.3204C6.55813 14.815 7.86578 14.4861 8.71079 13.5488V16.1076C8.71079 16.7973 9.16654 17.4769 10.0654 18.1276C10.8661 18.6838 11.1943 18.796 11.5 18.9411C11.823 18.7889 12.1159 18.6916 12.9346 18.1276C13.8335 17.4769 14.2892 16.7973 14.2892 16.1076V13.5488C15.1314 14.4924 16.4419 14.808 17.6063 14.3204C18.7166 13.8605 19.4062 12.8283 19.4062 11.6266C19.4062 10.0188 18.0982 8.71083 16.4905 8.71083ZM9.63731 8.70889C9.63731 7.68181 10.4729 6.84622 11.5 6.84622C12.5271 6.84622 13.3627 7.68181 13.3627 8.70889V8.7108H9.63731V8.70889ZM9.63731 15.6443V14.7101H13.3627V15.6443H9.63731ZM9.63731 13.7836V12.8493H13.3627V13.7836H9.63731ZM10.3368 11.9228L11.5 10.7596L12.6632 11.9228H10.3368V11.9228ZM7.91612 13.0332C7.22315 13.7262 6.34191 13.7103 5.74827 13.4644C5.15462 13.2185 4.52026 12.6066 4.52026 11.6266C4.52026 10.5297 5.41265 9.63731 6.50952 9.63731H11.312L7.91612 13.0332ZM12.4027 17.3687C12.0583 17.6194 11.708 17.8119 11.5 17.9182C11.292 17.8119 10.9417 17.6194 10.5973 17.3687C10.2221 17.0956 9.94926 16.8236 9.7924 16.5708H13.2076C13.0507 16.8236 12.7779 17.0956 12.4027 17.3687ZM17.2517 13.4644C16.6581 13.7103 15.7768 13.7261 15.0839 13.0332L11.688 9.63734H16.4905C17.5874 9.63734 18.4797 10.5297 18.4797 11.6266C18.4797 12.6066 17.8454 13.2185 17.2517 13.4644Z" fill="white"/>
</g>
<defs>
<clipPath id="clip0_253_202">
<rect width="15.8125" height="15.8125" fill="white" transform="translate(3.59375 3.59375)"/>
</clipPath>
</defs>
</svg>
