<svg width="19" height="19" viewBox="0 0 19 19" fill="none" xmlns="http://www.w3.org/2000/svg">
<g clip-path="url(#clip0_267_131)">
<path d="M6.06096 14.7785C4.96544 14.7785 4.07739 15.6666 4.07739 16.7621C4.07739 17.8576 4.96548 18.7456 6.06096 18.7456C7.15648 18.7456 8.04452 17.8575 8.04452 16.7621C8.04457 15.6666 7.15648 14.7785 6.06096 14.7785ZM6.06096 17.8641C5.45235 17.8641 4.95899 17.3707 4.95899 16.7621C4.95899 16.1535 5.45235 15.6601 6.06096 15.6601C6.66957 15.6601 7.16293 16.1535 7.16293 16.7621C7.16297 17.3707 6.66957 17.8641 6.06096 17.8641Z" fill="white"/>
<path d="M14.436 14.7785C13.3404 14.7785 12.4524 15.6666 12.4524 16.7621C12.4524 17.8576 13.3405 18.7456 14.436 18.7456C15.5314 18.7456 16.4195 17.8575 16.4195 16.7621C16.4195 15.6666 15.5315 14.7785 14.436 14.7785ZM14.436 17.8641C13.8273 17.8641 13.334 17.3707 13.334 16.7621C13.334 16.1535 13.8273 15.6601 14.436 15.6601C15.0446 15.6601 15.5379 16.1535 15.5379 16.7621C15.538 17.3707 15.0446 17.8641 14.436 17.8641Z" fill="white"/>
<path d="M18.9101 3.20764C18.8183 3.10737 18.6928 3.04459 18.5575 3.03131L4.20961 2.83295L3.8129 1.62075C3.53342 0.810405 2.77459 0.263342 1.91746 0.254272H0.440797C0.197344 0.254272 0 0.451617 0 0.695069C0 0.938522 0.197344 1.13587 0.440797 1.13587H1.91746C2.39673 1.14646 2.81876 1.4542 2.97539 1.90727L5.77445 10.3485L5.55407 10.8554C5.30825 11.4893 5.38208 12.2027 5.75242 12.7729C6.11923 13.3329 6.73632 13.6784 7.40542 13.6986H15.9789C16.2224 13.6986 16.4197 13.5012 16.4197 13.2578C16.4197 13.0143 16.2224 12.817 15.9789 12.817H7.40538C7.02753 12.8075 6.67971 12.6087 6.4797 12.288C6.28194 11.9712 6.24131 11.5809 6.36952 11.2301L6.54585 10.8334L15.8246 9.8636C16.8438 9.75134 17.6822 9.01006 17.9184 8.01224L18.9763 3.58225C19.024 3.45468 18.9987 3.31121 18.9101 3.20764ZM17.0588 7.81393C16.9157 8.45624 16.3704 8.93003 15.7144 8.98204L6.54585 9.92974L4.49614 3.71454L18.0065 3.9129L17.0588 7.81393Z" fill="white"/>
</g>
<defs>
<clipPath id="clip0_267_131">
<rect width="19" height="19" fill="white"/>
</clipPath>
</defs>
</svg>
