<svg width="19" height="21" viewBox="0 0 19 21" fill="none" xmlns="http://www.w3.org/2000/svg">
<path d="M18.8792 10.2153C18.7095 9.97486 14.6652 4.3269 9.49991 4.3269C4.33461 4.3269 0.290122 9.97486 0.120569 10.2151C-0.0401895 10.4433 -0.0401895 10.7527 0.120569 10.9809C0.290122 11.2213 4.33461 16.8693 9.49991 16.8693C14.6652 16.8693 18.7095 11.2213 18.8792 10.981C19.0402 10.7529 19.0402 10.4433 18.8792 10.2153ZM9.49991 15.5718C5.69511 15.5718 2.39976 11.8231 1.42426 10.5977C2.39849 9.37109 5.68695 5.62439 9.49991 5.62439C13.3045 5.62439 16.5996 9.37239 17.5756 10.5985C16.6013 11.8251 13.3129 15.5718 9.49991 15.5718Z" fill="white"/>
<path d="M9.49996 6.70563C7.42769 6.70563 5.7417 8.45183 5.7417 10.5981C5.7417 12.7444 7.42769 14.4906 9.49996 14.4906C11.5722 14.4906 13.2582 12.7444 13.2582 10.5981C13.2582 8.45183 11.5722 6.70563 9.49996 6.70563ZM9.49996 13.1931C8.11837 13.1931 6.99448 12.029 6.99448 10.5981C6.99448 9.16722 8.11841 8.00315 9.49996 8.00315C10.8815 8.00315 12.0054 9.16722 12.0054 10.5981C12.0054 12.029 10.8815 13.1931 9.49996 13.1931Z" fill="white"/>
</svg>
