<svg width="19" height="20" viewBox="0 0 19 20" fill="none" xmlns="http://www.w3.org/2000/svg">
<path d="M9.49988 17.6693C8.98061 17.6693 8.49174 17.4669 8.1239 17.0995L1.82939 10.8048C0.894783 9.87018 0.379883 8.62758 0.379883 7.30556V7.22823C0.379883 5.90621 0.894783 4.66342 1.82939 3.729C2.764 2.79458 4.00698 2.2793 5.32843 2.2793H5.40633C6.72778 2.2793 7.97076 2.7942 8.90537 3.72881L9.49988 4.32332L10.0944 3.72881C11.029 2.7942 12.272 2.2793 13.5934 2.2793H13.6713C14.9928 2.2793 16.2358 2.7942 17.1704 3.72881C18.105 4.66342 18.6199 5.90602 18.6199 7.22804V7.30537C18.6199 8.62739 18.105 9.87018 17.1704 10.8046L10.8759 17.0993C10.508 17.4669 10.0192 17.6693 9.49988 17.6693ZM8.92988 16.2933C9.2354 16.5983 9.76493 16.5975 10.0699 16.2931L16.3644 9.999C17.0835 9.27928 17.4799 8.32301 17.4799 7.30556V7.22823C17.4799 6.21078 17.0835 5.25432 16.3644 4.53498C15.6452 3.81564 14.6884 3.4193 13.6713 3.4193H13.5934C12.5764 3.4193 11.6195 3.81526 10.9004 4.53479L9.90287 5.53229C9.68019 5.75497 9.31957 5.75497 9.09689 5.53229L8.09939 4.53479C7.38024 3.81526 6.4234 3.4193 5.40633 3.4193H5.32843C4.31136 3.4193 3.35452 3.81526 2.63537 4.53479C1.91622 5.25432 1.51988 6.21059 1.51988 7.22804V7.30537C1.51988 8.32282 1.91622 9.27928 2.63537 9.99862L8.92988 16.2933Z" fill="white"/>
</svg>
