<svg class="slider-right-svg" width="877" height="639" viewBox="0 0 877 639" fill="none" xmlns="http://www.w3.org/2000/svg">
<path d="M538.281 12.0659C551.453 4.58349 567.589 4.58348 580.761 12.0659L613.059 30.414L645.134 49.3169C658.146 56.9853 666.181 70.9182 666.301 86.0213L666.597 123.354L666.301 160.688C666.181 175.791 658.146 189.724 645.134 197.392L613.059 216.295L580.761 234.643C567.589 242.125 551.453 242.125 538.281 234.643L505.983 216.295L473.908 197.392C460.896 189.724 452.861 175.791 452.741 160.688L452.445 123.354L452.741 86.0213C452.861 70.9182 460.896 56.9853 473.908 49.3169L505.983 30.414L538.281 12.0659Z" fill="#F9C300"></path>
<path d="M86.56 12.0659C99.7313 4.58349 115.868 4.58348 129.039 12.0659L161.338 30.414L193.413 49.3169C206.425 56.9853 214.46 70.9182 214.58 86.0213L214.876 123.354L214.58 160.688C214.46 175.791 206.425 189.724 193.413 197.392L161.338 216.295L129.039 234.643C115.868 242.125 99.7313 242.125 86.56 234.643L54.2616 216.295L22.1864 197.392C9.17436 189.724 1.13952 175.791 1.01973 160.688L0.723633 123.354L1.01973 86.0213C1.13952 70.9182 9.17436 56.9853 22.1864 49.3169L54.2616 30.414L86.56 12.0659Z" fill="#F9C300"></path>
<path d="M313.037 12.0659C326.209 4.58349 342.345 4.58348 355.517 12.0659L387.815 30.414L419.89 49.3169C432.902 56.9853 440.937 70.9182 441.057 86.0213L441.353 123.354L441.057 160.688C440.937 175.791 432.902 189.724 419.89 197.392L387.815 216.295L355.517 234.643C342.345 242.125 326.209 242.125 313.037 234.643L280.739 216.295L248.664 197.392C235.652 189.724 227.617 175.791 227.497 160.688L227.201 123.354L227.497 86.0213C227.617 70.9182 235.652 56.9853 248.664 49.3169L280.739 30.414L313.037 12.0659Z" fill="#F9C300"></path>
<path d="M312.102 403.824C325.274 396.341 341.41 396.341 354.581 403.824L386.88 422.172L418.955 441.075C431.967 448.743 440.002 462.676 440.122 477.779L440.418 515.112L440.122 552.446C440.002 567.549 431.967 581.482 418.955 589.15L386.88 608.053L354.581 626.401C341.41 633.883 325.274 633.883 312.102 626.401L279.804 608.053L247.729 589.15C234.717 581.482 226.682 567.549 226.562 552.446L226.266 515.112L226.562 477.779C226.682 462.676 234.717 448.743 247.729 441.075L279.804 422.172L312.102 403.824Z" fill="#F9C300"></path>
<path d="M763.286 12.0659C776.457 4.58349 792.594 4.58348 805.765 12.0659L838.063 30.414L870.139 49.3169C883.151 56.9853 891.186 70.9182 891.305 86.0213L891.601 123.354L891.305 160.688C891.186 175.791 883.151 189.724 870.139 197.392L838.063 216.295L805.765 234.643C792.594 242.125 776.457 242.125 763.286 234.643L730.987 216.295L698.912 197.392C685.9 189.724 677.865 175.791 677.746 160.688L677.449 123.354L677.746 86.0213C677.865 70.9182 685.9 56.9853 698.912 49.3169L730.987 30.414L763.286 12.0659Z" fill="#F9C300"></path>
<path d="M649.698 207.407C662.87 199.925 679.006 199.925 692.178 207.407L724.476 225.755L756.551 244.658C769.563 252.327 777.598 266.26 777.718 281.363L778.014 318.696L777.718 356.029C777.598 371.132 769.563 385.065 756.551 392.733L724.476 411.636L692.178 429.984C679.006 437.467 662.87 437.467 649.698 429.984L617.4 411.636L585.325 392.733C572.313 385.065 564.278 371.132 564.158 356.029L563.862 318.696L564.158 281.363C564.278 266.26 572.313 252.327 585.325 244.658L617.4 225.755L649.698 207.407Z" fill="#F9C300"></path>
<path d="M424.3 207.407C437.472 199.925 453.608 199.925 466.779 207.407L499.078 225.755L531.153 244.658C544.165 252.327 552.2 266.26 552.32 281.363L552.616 318.696L552.32 356.029C552.2 371.132 544.165 385.065 531.153 392.733L499.078 411.636L466.779 429.984C453.608 437.467 437.472 437.467 424.3 429.984L392.002 411.636L359.927 392.733C346.915 385.065 338.88 371.132 338.76 356.029L338.464 318.696L338.76 281.363C338.88 266.26 346.915 252.327 359.927 244.658L392.002 225.755L424.3 207.407Z" fill="#F9C300"></path>
<path d="M762.562 404.196C775.733 396.713 791.87 396.713 805.041 404.195L837.34 422.544L869.415 441.447C882.427 449.115 890.462 463.048 890.582 478.151L890.878 515.484L890.582 552.817C890.462 567.92 882.427 581.853 869.415 589.522L837.34 608.425L805.041 626.773C791.87 634.255 775.733 634.255 762.562 626.773L730.264 608.425L698.189 589.522C685.177 581.853 677.142 567.92 677.022 552.817L676.726 515.484L677.022 478.151C677.142 463.048 685.177 449.115 698.189 441.447L730.264 422.544L762.562 404.196Z" fill="#F9C300"></path>
<path d="M537.558 404.196C550.729 396.713 566.866 396.713 580.037 404.195L612.336 422.544L644.411 441.447C657.423 449.115 665.458 463.048 665.578 478.151L665.874 515.484L665.578 552.817C665.458 567.92 657.423 581.853 644.411 589.522L612.336 608.425L580.037 626.773C566.866 634.255 550.729 634.255 537.558 626.773L505.26 608.425L473.184 589.522C460.172 581.853 452.138 567.92 452.018 552.817L451.722 515.484L452.018 478.151C452.138 463.048 460.172 449.115 473.184 441.447L505.26 422.544L537.558 404.196Z" fill="#F9C300"></path>
<path d="M85.8364 404.196C99.0076 396.713 115.144 396.713 128.316 404.195L160.614 422.544L192.689 441.447C205.701 449.115 213.736 463.048 213.856 478.151L214.152 515.484L213.856 552.817C213.736 567.92 205.701 581.853 192.689 589.522L160.614 608.425L128.316 626.773C115.144 634.255 99.0077 634.255 85.8364 626.773L53.538 608.425L21.4628 589.522C8.45073 581.853 0.415888 567.92 0.296101 552.817L0 515.484L0.296101 478.151C0.415888 463.048 8.45073 449.115 21.4628 441.447L53.538 422.544L85.8364 404.196Z" fill="#F9C300"></path>
<path d="M198.034 207.407C211.206 199.925 227.342 199.925 240.514 207.407L272.812 225.755L304.887 244.658C317.899 252.327 325.934 266.26 326.054 281.363L326.35 318.696L326.054 356.029C325.934 371.132 317.899 385.065 304.887 392.733L272.812 411.636L240.514 429.984C227.342 437.467 211.206 437.467 198.034 429.984L165.736 411.636L133.661 392.733C120.649 385.065 112.614 371.132 112.494 356.029L112.198 318.696L112.494 281.363C112.614 266.26 120.649 252.327 133.661 244.658L165.736 225.755L198.034 207.407Z" fill="#F9C300"></path>
</svg>
