<svg width="104" height="119" viewBox="0 0 104 119" fill="none" xmlns="http://www.w3.org/2000/svg">
<path d="M45.5307 2.71157C49.5373 0.412909 54.4627 0.41291 58.4693 2.71157L78 13.9168L97.4691 25.5044C101.376 27.8297 103.784 32.027 103.82 36.5734L104 59.5L103.82 82.4266C103.784 86.973 101.376 91.1703 97.4692 93.4956L78 105.083L58.4693 116.288C54.4627 118.587 49.5373 118.587 45.5307 116.288L26 105.083L6.53086 93.4956C2.62399 91.1703 0.215755 86.973 0.180051 82.4266L0 59.5L0.180051 36.5734C0.215755 32.027 2.62398 27.8297 6.53085 25.5044L26 13.9168L45.5307 2.71157Z" fill="#033D50"/>
</svg>
